<svg id="visual" viewBox="0 0 900 600" width="900" height="600" xmlns="http://www.w3.org/2000/svg" xmlns:xlink="http://www.w3.org/1999/xlink" version="1.1"><g transform="translate(449.65792355172766 279.61209638129037)"><path d="M114.7 -190.7C154.4 -175.7 196.3 -156.6 227.5 -124.1C258.8 -91.7 279.4 -45.8 274.5 -2.8C269.6 40.2 239.1 80.3 209.7 116C180.3 151.6 151.9 182.8 117.1 208.4C82.3 233.9 41.2 254 -3.3 259.7C-47.8 265.5 -95.7 257 -133.3 233.1C-171 209.2 -198.5 169.8 -223.3 128.4C-248 87 -270 43.5 -273.9 -2.2C-277.8 -48 -263.6 -96 -235.6 -131.8C-207.6 -167.6 -165.8 -191.2 -124.2 -205C-82.7 -218.8 -41.3 -222.9 -1.9 -219.6C37.5 -216.3 75 -205.6 114.7 -190.7" fill="#CBC0D3"></path></g></svg>